<svg xmlns="http://www.w3.org/2000/svg" width="1440" height="65" fill="none"><path fill="#050505" d="M-.0000722 70V8.6006C6.33656 9.15061 12.1226 10.0673 9.96547 10.8373c.44943 2.4323 18.96493-1.0939 22.82983 1.5523 1.3595-1.5095 26.9982 5.8178 21.5717 5.4389 5.9097 3.7279 16.9987 1.8823 21.9534 3.184-2.2246-1.9923 24.0546-14.84416 24.3576-8.2868 2.146 3.74 23.313 17.3681 23.313 9.4846 0 .88 20.325-8.2196 20.325-10.5969 0 2.9029 22.605-10.23626 22.605 2.3467 0-2.0472 21.717-1.4361 21.717-1.9678 0 2.029 22.538.9778 22.538.4339 0-6.96677 21.549-1.595 21.549-2.68891 0-4.70564 22.617 4.24121 22.617 2.31611 0-4.4306 21.56-5.53061 21.56-2.24278 0-3.47728 21.953-3.72173 21.953.36058 0 .6355 21.898-3.37341 21.898.7883 0-3.29392 21.818-.9289 21.818-4.8095 0 1.23447 22.224-6.294553 22.224-6.14788349C364.795 4.05997 386.501 11.4301 386.501 8.24615c0 5.99515 21.897 1.65614 21.897 1.31391 0-2.71338 22.392-3.45284 22.392-3.56284 0-.6539 21.369 10.18738 21.369 6.05008 0-10.53571 22.381-8.51901 22.381-2.55446 0-2.75005 22.695-9.362388 22.695-4.71175 0 2.56671 22.245 20.58871 22.245 10.99411 0 6.6551 24.336-2.9945 24.336-5.0296 0-4.41226 23.065 9.3196 23.065 4.6873 0-6.36785 23.448 1.3751 23.448 1.7784 0-1.32 24.695-11.15297 24.695-7.76735 0-.90446 23.291-.39112 23.291 2.92725 0-4.52228 22.852 9.5702 22.852 6.2762 0 1.8762 21.358-1.1978 21.358-2.4689 0 3.9112 21.19-2.6461 21.19-.6356 0-5.77506 21.414 6.8874 21.414-.8005 0-5.52457 18.055 12.913 18.055 12.0696 0 1.2284 23.964-5.2067 23.964-8.1829 0-3.3 17.786 11.8985 17.786 8.8918 0 .2445 22.627-4.0334 22.627-3.7461 0-8.3357 16.347 16.378 16.347 10.4012 0 2.8723 21.437-3.3061 21.437 1.0634 0-4.7118 17.651-9.9002 17.651-8.1463 0-4.6384 21.638-1.3322 21.638-1.0694 0 1.6561 12.809-7.2479 12.809-12.4791 0 .9167 24.099 7.8834 24.099 4.7301 0-1.4545 23.425-.0428 23.425-1.8273 0 4.4184 14.954 17.912 14.954 14.5019 0-5.6529 23.999-1.8333 23.999-2.0289 0-2.5912 22.45 1.0939 22.45.8067 0 2.9456 17.04 10.2485 17.04 10.6885 0-3.1778 26.03.4889 26.03-5.7507 0-1.7294 20.2-1.2222 20.2 4.9073 0 1.3262 22.44 6.4902 22.44.8312 0 4.1678 16.01 10.1202 16.01 12.5646 0-1.6561 21.04 1.2528 21.04 3.4773 0-.77 23.31-12.3813 23.31-7.2662 0-4.9257 22.41 9.3501 22.41 5.2373 0 1.0206 13.98-18.0464 13.98-14.3491 0 1.7967 24.6-5.8913 24.6-5.2496 0 1.8151 28.01 6.2579 28.01.0978 0-3.3917 23.41-9.179 23.41-9.1852 0-2.4261 25.59 9.4113 25.59 7.5963 0 5.4084 25.48 4.9806 22.74-1.8456 1.68 1.4728 17.63 1.8456 21.3-.3545-2.06 4.6935 22.38 13.7136 20.55 7.3518 2.28 2.8723 17.22 2.5179 21.35 2.0595-1.32 3.1656 20.12 9.2891 21.41 2.4445-2.7-6.7957 23.83-3.5139 21.82 1.2528 2.48-3.4039 13.73-6.6673 20.39-2.4017V70H-.0000722Z"/></svg>