<svg xmlns="http://www.w3.org/2000/svg" width="1440" height="133" fill="none"><path fill="#050505" d="m1439.83 133-.01-118.9265c-6.33.9-12.12 2.4-9.96 3.66-.45 3.98-18.96-1.79-22.83 2.54-1.36-2.47-26.99 9.52-21.56 8.9-5.91 6.1-17 3.08-21.95 5.21 2.22-3.26-24.05-24.29-24.35-13.56-2.15 6.12-23.31 28.42-23.31 15.52 0 1.44-20.32-13.45-20.32-17.34 0 4.75-22.6-16.75004-22.6 3.84 0-3.35-21.71-2.35-21.71-3.22 0 3.32-22.53 1.6-22.53.71 0-11.40003-21.55-2.61-21.55-4.4 0-7.70003-22.61 6.94-22.61 3.79 0-7.25-21.55-9.05-21.55-3.67 0-5.69-21.95-6.09004-21.95.59 0 1.04-21.89-5.52-21.89 1.29 0-5.39-21.82-1.52-21.82-7.87 0 2.02-22.22-10.300037-22.22-10.06003668 0 6.63999668-21.7 18.70003668-21.7 13.49003668 0 9.81-21.89 2.71-21.89 2.15 0-4.44-22.39-5.65003-22.39-5.83003 0-1.07001-21.36 16.67003-21.36 9.90003 0-17.24004-22.375-13.94004-22.375-4.18 0-4.5-22.689-15.320036-22.689-7.71004 0 4.20004-22.24 33.69004-22.24 17.99004 0 10.89-24.33-4.9-24.33-8.23 0-7.22-23.06 15.25-23.06 7.67 0-10.42-23.442 2.25-23.442 2.91 0-2.16-24.689-18.25003-24.689-12.71 0-1.48-23.285-.64-23.285 4.79 0-7.4-22.847 15.66-22.847 10.27 0 3.07-21.353-1.96-21.353-4.04 0 6.4-21.184-4.33-21.184-1.04 0-9.45-21.409 11.27-21.409-1.31 0-9.04-18.051 21.13-18.051 19.75 0 2.01-23.959-8.52-23.959-13.39 0-5.4-17.781 19.47-17.781 14.55 0 .4-22.622-6.6-22.622-6.13 0-13.64-16.343 26.8-16.343 17.02 0 4.7-21.431-5.41-21.431 1.74 0-7.71-17.647-16.2-17.647-13.33 0-7.59-21.633-2.18-21.633-1.75 0 2.71-12.805-11.86-12.805-20.42 0 1.5-24.094 12.9-24.094 7.74 0-2.38-23.42-.07-23.42-2.99 0 7.23-14.95 29.31-14.95 23.73 0-9.25-23.992-3-23.992-3.32 0-4.24-22.443 1.79-22.443 1.32 0 4.82-17.04 16.77-17.04 17.49 0-5.2-26.025.8-26.025-9.41 0-2.83-20.196-2-20.196 8.03 0 2.17-22.431 10.62-22.431 1.36 0 6.82-16.007 16.56-16.007 20.56 0-2.71-21.038 2.05-21.038 5.69 0-1.26-23.296-20.26-23.296-11.89 0-8.06-22.409 15.3-22.409 8.57 0 1.67-13.973-29.53-13.973-23.48 0 2.94-24.599-9.64-24.599-8.59 0 2.97-28.002 10.24-28.002.16 0-5.55-23.409-15.02-23.409-15.03 0-3.97-25.576 15.4-25.576 12.43 0 8.85-25.475 8.15-22.735-3.02-1.685 2.41-17.623 3.02-21.296-.58 2.055 7.68-22.3754 22.44-20.5445 12.03-2.2802 4.7-17.2194 4.12-21.3417 3.37 1.3142 5.18-20.1173 15.2-21.409 4 2.6958-11.12-23.8241-5.75-21.8134 2.05-2.4824-5.57-13.7261-10.91-20.386943-3.93V133H1439.83Z"/></svg>